<svg xmlns="http://www.w3.org/2000/svg" xmlns:xlink="http://www.w3.org/1999/xlink" width="500" zoomAndPan="magnify" viewBox="0 0 375 374.999991" height="500" preserveAspectRatio="xMidYMid meet" version="1.0"><defs><clipPath id="85604ee1c3"><path d="M 20.480469 171 L 178 171 L 178 354.230469 L 20.480469 354.230469 Z M 20.480469 171 " clip-rule="nonzero"/></clipPath><clipPath id="a0d339dc24"><path d="M 197 20.480469 L 354.230469 20.480469 L 354.230469 204 L 197 204 Z M 197 20.480469 " clip-rule="nonzero"/></clipPath><clipPath id="56b90700b5"><path d="M 197 224 L 354.230469 224 L 354.230469 354.230469 L 197 354.230469 Z M 197 224 " clip-rule="nonzero"/></clipPath><clipPath id="cdbfd094b0"><path d="M 20.480469 20.480469 L 178 20.480469 L 178 151 L 20.480469 151 Z M 20.480469 20.480469 " clip-rule="nonzero"/></clipPath></defs><g clip-path="url(#85604ee1c3)"><path fill="#4880ff" d="M 161.398438 171.839844 L 36.136719 171.839844 C 27.472656 171.839844 20.480469 178.832031 20.480469 187.496094 L 20.480469 338.855469 C 20.480469 347.414062 27.472656 354.511719 36.136719 354.511719 L 161.398438 354.511719 C 170.0625 354.511719 177.058594 347.414062 177.058594 338.855469 L 177.058594 187.496094 C 177.058594 178.832031 170.0625 171.839844 161.398438 171.839844 Z M 161.398438 171.839844 " fill-opacity="1" fill-rule="nonzero"/></g><g clip-path="url(#a0d339dc24)"><path fill="#4880ff" d="M 338.855469 20.480469 L 213.59375 20.480469 C 204.929688 20.480469 197.933594 27.472656 197.933594 36.136719 L 197.933594 187.496094 C 197.933594 196.054688 204.929688 203.152344 213.59375 203.152344 L 338.855469 203.152344 C 347.519531 203.152344 354.511719 196.054688 354.511719 187.496094 L 354.511719 36.136719 C 354.511719 27.472656 347.519531 20.480469 338.855469 20.480469 Z M 338.855469 20.480469 " fill-opacity="1" fill-rule="nonzero"/></g><g clip-path="url(#56b90700b5)"><path fill="#4880ff" d="M 338.855469 224.03125 L 213.59375 224.03125 C 204.929688 224.03125 197.933594 231.023438 197.933594 239.6875 L 197.933594 338.855469 C 197.933594 347.414062 204.929688 354.511719 213.59375 354.511719 L 338.855469 354.511719 C 347.519531 354.511719 354.511719 347.414062 354.511719 338.855469 L 354.511719 239.6875 C 354.511719 231.023438 347.519531 224.03125 338.855469 224.03125 Z M 338.855469 224.03125 " fill-opacity="1" fill-rule="nonzero"/></g><g clip-path="url(#cdbfd094b0)"><path fill="#4880ff" d="M 161.398438 20.480469 L 36.136719 20.480469 C 27.472656 20.480469 20.480469 27.472656 20.480469 36.136719 L 20.480469 135.304688 C 20.480469 143.863281 27.472656 150.960938 36.136719 150.960938 L 161.398438 150.960938 C 170.0625 150.960938 177.058594 143.863281 177.058594 135.304688 L 177.058594 36.136719 C 177.058594 27.472656 170.0625 20.480469 161.398438 20.480469 Z M 161.398438 20.480469 " fill-opacity="1" fill-rule="nonzero"/></g></svg>